<?xml version="1.0" encoding="UTF-8" standalone="no"?>
<!-- Created with Inkscape (http://www.inkscape.org/) -->

<svg
   width="159.73775mm"
   height="82.392342mm"
   viewBox="0 0 159.73775 82.392342"
   version="1.1"
   id="svg1"
   xml:space="preserve"
   xmlns="http://www.w3.org/2000/svg"
   xmlns:svg="http://www.w3.org/2000/svg"><defs
     id="defs1" /><g
     id="layer1"
     transform="translate(-19.807736,-153.41146)"><path
       style="fill-opacity:1"
       d="m 19.88818,235.48678 c -0.07714,-0.20101 -0.103449,-11.9074 -0.05847,-26.0142 0.08033,-25.19727 0.09185,-25.69296 0.654493,-28.16226 2.494877,-10.94942 8.724726,-19.22498 18.273206,-24.27362 2.780292,-1.47004 4.468641,-2.0848 8.364227,-3.04556 2.098072,-0.51744 3.077644,-0.59226 7.569327,-0.57814 4.927476,0.0155 5.299211,0.0537 8.270495,0.85033 6.422419,1.72187 11.101377,4.37966 15.660964,8.89592 4.531623,4.48855 7.847171,10.16146 9.490895,16.23892 l 0.839184,3.10278 0.07439,26.60418 0.07439,26.60418 -34.536427,0.0715 c -29.184089,0.0604 -34.558162,0.0148 -34.676673,-0.294 z m 8.125304,-1.81832 c 3.086911,-1.03421 7.064824,-2.08564 7.759765,-2.05104 0.421552,0.021 0.394648,0.0615 -0.132291,0.19945 -2.447454,0.64053 -7.14375,2.27859 -7.14375,2.49174 0,0.16653 5.595924,0.19135 15.808854,0.0701 8.69487,-0.1032 21.047604,-0.19278 27.450521,-0.19905 12.562663,-0.0123 12.416912,0.0216 4.7625,-1.10933 -1.600729,-0.23651 -3.743854,-0.55853 -4.7625,-0.7156 -3.423374,-0.52786 -8.796181,-0.60639 -11.105103,-0.16232 -2.205486,0.42417 -2.7434,0.37245 -2.254389,-0.21677 0.336285,-0.4052 3.428408,-0.75615 6.348033,-0.72049 2.275054,0.0278 9.870149,0.75758 11.641667,1.11862 0.654844,0.13346 1.42875,0.24029 1.719792,0.2374 0.44445,-0.004 0.42327,-0.0479 -0.132292,-0.2714 -1.190478,-0.47902 -10.185755,-1.70246 -13.49375,-1.83528 l -0.926042,-0.0372 1.048177,-0.32401 c 0.9919,-0.30662 0.84274,-0.33979 -2.778125,-0.6178 -5.650141,-0.43382 -13.532979,-0.15151 -18.061687,0.64684 -2.404652,0.4239 -3.397578,0.32932 -1.600176,-0.15244 1.25395,-0.33609 5.272998,-0.79897 7.236603,-0.83344 1.767142,-0.031 2.910417,-0.22446 2.910417,-0.49242 0,-0.41902 -6.048191,-1.08774 -9.810905,-1.08474 -4.037311,0.003 -8.31452,0.58893 -10.769321,1.47471 -2.710175,0.97794 -4.530815,1.71639 -6.768501,2.74531 -2.565143,1.1795 -2.665142,1.21181 -2.394415,0.77377 0.324952,-0.52579 5.412705,-2.77199 8.848518,-3.90655 4.835485,-1.59677 8.435155,-1.94894 15.669484,-1.53302 2.127964,0.12234 2.540754,0.0937 1.917848,-0.13293 -0.452251,-0.16455 -3.554052,-0.33954 -7.209552,-0.40671 -8.516182,-0.15649 -11.502137,0.40562 -16.690752,3.14209 -3.715412,1.95951 -4.013238,2.22553 -4.013238,3.58471 v 1.14087 h 2.233905 c 1.796945,0 2.714463,-0.161 4.690705,-0.82311 z m 8.636198,-2.26805 c 0.190996,-0.0764 0.419199,-0.067 0.507118,0.0209 0.08792,0.0879 -0.06835,0.15045 -0.347266,0.13896 -0.308224,-0.0127 -0.370919,-0.0754 -0.159852,-0.15985 z m 2.89388,-0.78824 c 0.181901,-0.0734 0.479557,-0.0734 0.661458,0 0.181901,0.0734 0.03307,0.13346 -0.330729,0.13346 -0.363802,0 -0.51263,-0.0601 -0.330729,-0.13346 z m 46.368229,2.86975 c 0,-0.11874 -0.625078,-0.47404 -1.389062,-0.78954 -2.007793,-0.82917 -9.670261,-3.74128 -10.914063,-4.14788 -3.549082,-1.16018 -11.484884,-4.35646 -14.202551,-5.72031 -4.174236,-2.09484 -9.671425,-4.10967 -13.710991,-5.02536 -3.006207,-0.68145 -9.406739,-0.94569 -12.847868,-0.53041 -3.10546,0.37477 -6.199367,1.12082 -8.583382,2.06975 -2.16418,0.86142 -2.891566,1.38128 -2.902102,2.0741 -0.0079,0.52234 0.0714,0.50896 1.777623,-0.29963 4.074329,-1.93086 8.917634,-2.64209 16.470313,-2.41863 4.737039,0.14016 5.365128,0.21677 7.672916,0.93589 2.389922,0.74472 7.542009,2.8231 10.980209,4.42948 0.873125,0.40794 3.015125,1.34711 4.760001,2.08706 2.102846,0.89175 3.202187,1.4995 3.260546,1.80253 0.101205,0.52551 -0.85657,0.65343 -1.164307,0.1555 -0.201482,-0.326 -8.392177,-4.35644 -10.560407,-5.19652 -0.727604,-0.2819 -2.665754,-1.06514 -4.306999,-1.74051 -1.641246,-0.67538 -3.14562,-1.22795 -3.343055,-1.22795 -0.197434,0 -0.960388,-0.19424 -1.695454,-0.43164 -0.760327,-0.24556 -1.54334,-0.34593 -1.816321,-0.23282 -0.354379,0.14683 -0.08002,0.29314 1.04932,0.55957 1.475674,0.34813 3.286201,1.13093 2.6659,1.15263 -0.166573,0.006 -1.059541,-0.22246 -1.984375,-0.5073 -0.924834,-0.28484 -2.963606,-0.60018 -4.530604,-0.70074 -1.566999,-0.10057 -2.803489,-0.22845 -2.747756,-0.28418 0.05573,-0.0557 1.040167,-0.17015 2.18763,-0.25426 3.856273,-0.28266 2.394134,-0.43225 -2.676203,-0.2738 -6.891614,0.21537 -10.846799,1.01226 -14.689983,2.95975 -0.72452,0.36714 -1.317308,0.78459 -1.317308,0.92766 0,0.36714 0.321159,0.32335 0.972041,-0.13255 0.856318,-0.59978 6.546173,-2.51774 7.469201,-2.51774 0.720684,0 0.189251,0.488 -0.70218,0.64479 -1.432112,0.25188 -4.726306,1.38943 -6.416146,2.21562 l -1.455208,0.71146 0.04996,2.07844 c 0.02748,1.14314 0.109921,2.13839 0.183204,2.21167 0.07328,0.0733 0.467518,-0.10279 0.876079,-0.39127 1.005947,-0.7103 3.740622,-2.07067 5.442858,-2.70756 6.066016,-2.26959 15.37161,-2.24574 23.081229,0.0592 2.497768,0.74674 6.770603,2.36239 8.815122,3.33318 1.349747,0.6409 2.164375,0.82686 4.233333,0.96638 1.409079,0.095 3.633525,0.35262 4.943212,0.57245 1.309688,0.21982 3.512344,0.56925 4.894792,0.77651 2.24553,0.33664 4.313821,0.84779 10.054166,2.48473 2.063436,0.58842 2.116667,0.59652 2.116667,0.32229 z m -63.103125,-9.17459 c 0.647924,-0.51677 5.719415,-2.07372 8.069792,-2.47743 2.735193,-0.4698 5.357747,-0.6121 6.217708,-0.33738 0.720625,0.23021 0.659688,0.25608 -0.661458,0.28089 -4.017224,0.0754 -9.925185,1.13033 -11.896213,2.12412 -0.514843,0.25959 -1.233735,0.55295 -1.597537,0.65191 -0.644475,0.17532 -0.647871,0.16911 -0.132292,-0.24211 z m 28.508854,-0.67192 c -0.586542,-0.23576 -0.830061,-0.78551 -0.347953,-0.78551 0.525779,0 1.604724,0.52928 1.604724,0.7872 0,0.32462 -0.446453,0.32401 -1.256771,-0.002 z m -19.976041,-3.61807 c 0.327421,-0.0631 0.863203,-0.0631 1.190625,0 0.327421,0.0631 0.05953,0.11467 -0.595313,0.11467 -0.654844,0 -0.922734,-0.0516 -0.595312,-0.11467 z m 2.650571,-0.26961 c 0.475549,-0.0589 1.189924,-0.0577 1.5875,0.003 0.397577,0.0604 0.0085,0.10855 -0.864634,0.10707 -0.873125,-0.001 -1.198414,-0.0509 -0.722866,-0.10977 z m 45.905506,12.98279 c -0.179132,-0.0725 -0.536319,-0.0769 -0.79375,-0.01 -0.257431,0.0671 -0.110869,0.12639 0.325693,0.13178 0.436563,0.005 0.647188,-0.0495 0.468057,-0.12197 z m 7.579687,-0.71838 c -0.489125,-0.4356 -4.156573,-2.31647 -4.942287,-2.53468 -1.811478,-0.50308 -1.541887,-0.2874 1.636648,1.30938 1.735032,0.87162 3.213391,1.52597 3.285243,1.45412 0.07185,-0.0718 0.08103,-0.17482 0.0204,-0.22882 z m -64.007119,-2.1845 c 1.560903,-1.02852 5.596756,-2.65945 7.6808,-3.10389 4.666852,-0.99523 13.808287,-0.95613 19.839708,0.0849 3.696821,0.63805 4.141471,0.65483 2.906576,0.10968 -2.370701,-1.04657 -7.620575,-2.34791 -11.063428,-2.7424 -6.631088,-0.75982 -11.915656,0.0333 -17.324639,2.60014 -2.889529,1.37123 -4.420267,2.51661 -4.420267,3.30747 0,1.14028 0.313551,1.10659 2.38125,-0.25587 z m 62.573959,0.30521 c -0.582084,-0.35852 -1.177396,-0.6563 -1.322917,-0.66174 -0.145521,-0.005 -0.621771,-0.19668 -1.058333,-0.42498 -1.0322,-0.53978 -3.575269,-1.43373 -4.078643,-1.43373 -0.693623,0 0.04796,0.42202 1.829684,1.04123 0.945886,0.32873 2.315105,0.86834 3.042709,1.19913 2.468536,1.12226 3.150081,1.24251 1.5875,0.28009 z m 1.416623,-0.51166 c -0.398333,-0.31798 -4.871005,-2.01677 -5.981502,-2.27186 -0.764433,-0.1756 -1.456069,-0.42636 -1.536969,-0.55726 -0.0809,-0.1309 -0.467486,-0.2474 -0.85908,-0.25889 -0.391594,-0.0115 -0.557936,-0.0827 -0.369649,-0.15821 0.435394,-0.17465 4.999812,1.11336 6.858529,1.93537 1.697219,0.75059 2.262313,0.79329 2.14351,0.16196 -0.142297,-0.75619 -5.681214,-2.47394 -12.122504,-3.75949 -2.33125,-0.46527 -3.421228,-0.77126 -2.778125,-0.77989 2.471754,-0.0332 8.146479,1.15044 12.451523,2.5971 2.376685,0.79866 2.762019,0.81829 2.762019,0.14073 0,-0.24536 -0.276805,-0.38126 -0.776526,-0.38126 -0.427089,0 -1.111698,-0.12899 -1.521354,-0.28664 -0.409656,-0.15765 -2.411704,-0.69491 -4.448995,-1.19391 -3.689395,-0.90365 -3.696254,-0.90673 -1.719792,-0.77315 1.997911,0.13502 6.636171,1.16968 7.631467,1.70235 0.294706,0.15772 0.5964,0.28676 0.670433,0.28676 0.07403,0 0.111625,-1.09656 0.08354,-2.4368 l -0.05106,-2.4368 -0.926042,-0.19462 c -2.905785,-0.61069 -12.524247,-0.29729 -13.580441,0.4425 -0.513593,0.35973 -0.369741,0.39239 1.728467,0.39239 2.403577,0 5.787956,0.36081 7.354058,0.78401 0.509323,0.13764 1.735066,0.38922 2.723873,0.55907 0.988807,0.16985 1.744784,0.36187 1.679948,0.42671 -0.10615,0.10615 -4.911996,-0.55248 -9.03403,-1.2381 -1.54762,-0.25741 -4.163637,-0.3258 -3.241145,-0.0847 0.977227,0.25537 0.397296,0.61316 -1.058334,0.65293 l -1.521354,0.0416 1.322917,0.19297 c 0.733822,0.10704 -0.09091,0.13229 -1.852084,0.0567 -3.21118,-0.13783 -4.458095,-0.33281 -2.128367,-0.33281 1.096329,0 1.222724,-0.0535 0.937742,-0.39687 -0.283983,-0.34218 -0.16994,-0.39919 0.827499,-0.41365 0.980346,-0.0142 1.063774,-0.0541 0.546738,-0.26154 -0.645679,-0.25903 -5.524054,0.29596 -6.18096,0.70318 -0.246153,0.15259 -0.03304,0.32027 0.705682,0.55524 l 1.058333,0.33664 -1.455208,-0.12814 -1.455209,-0.12815 0.926042,0.35802 c 0.509323,0.1969 1.640417,0.44944 2.513542,0.56118 1.143345,0.14634 1.439448,0.25816 1.058333,0.39968 -0.444261,0.16497 -0.359356,0.24433 0.529167,0.49461 0.582083,0.16395 1.355989,0.2869 1.719791,0.2732 l 0.661459,-0.0249 -0.658791,-0.18336 c -0.439839,-0.12242 -0.551575,-0.24962 -0.336197,-0.38274 0.177426,-0.10965 0.533413,-0.0905 0.791082,0.0427 0.257669,0.13311 1.211435,0.32298 2.11948,0.42195 0.908045,0.099 2.033051,0.31311 2.500014,0.4759 0.756988,0.26389 0.793128,0.31976 0.333385,0.51543 -0.329364,0.14017 -0.08552,0.17231 0.674985,0.089 0.730256,-0.08 0.99718,-0.0477 0.69033,0.0836 -0.38474,0.16463 -0.01807,0.35703 1.5875,0.83301 1.148287,0.34042 2.266389,0.71584 2.48467,0.83427 0.218281,0.11843 1.334144,0.57882 2.479695,1.0231 1.14555,0.44427 2.276644,0.91721 2.513541,1.05097 0.369398,0.20858 0.835768,-0.1124 0.524429,-0.36094 z m -2.078082,-5.18379 c -0.544922,-0.17451 -0.56823,-0.21577 -0.132291,-0.23416 0.291041,-0.0123 0.70776,0.0931 0.926041,0.23416 0.463588,0.2996 0.141732,0.2996 -0.79375,0 z m -2.182812,-0.43981 c 0.181901,-0.0734 0.479557,-0.0734 0.661458,0 0.181901,0.0734 0.03307,0.13345 -0.330729,0.13345 -0.363802,0 -0.51263,-0.0601 -0.330729,-0.13345 z m -1.785938,-0.35394 c 0,-0.31054 0.203364,-0.31054 0.926042,0 0.468908,0.2015 0.446311,0.22951 -0.198437,0.24599 -0.400183,0.0102 -0.727605,-0.10047 -0.727605,-0.24599 z m -1.637109,-0.44532 c 0.190996,-0.0764 0.419199,-0.067 0.507118,0.0209 0.08792,0.0879 -0.06835,0.15045 -0.347265,0.13896 -0.308225,-0.0127 -0.37092,-0.0754 -0.159853,-0.15985 z m -2.530078,-0.26623 c 0.254661,-0.0665 0.67138,-0.0665 0.926042,0 0.254661,0.0666 0.0463,0.121 -0.463021,0.121 -0.509323,0 -0.717683,-0.0545 -0.463021,-0.121 z m -21.761979,5.34522 c -0.945886,-0.18787 -1.766599,-0.29807 -1.823807,-0.24489 -0.228981,0.21284 1.424841,0.55948 2.749848,0.57635 0.436563,0.006 0.01984,-0.1436 -0.926041,-0.33146 z m 24.270008,0.23356 c -0.08792,-0.0879 -0.316121,-0.0973 -0.507118,-0.0209 -0.211066,0.0845 -0.148372,0.14716 0.159853,0.15986 0.278915,0.0115 0.435184,-0.0511 0.347265,-0.13897 z m -1.058333,-0.26458 c -0.08792,-0.0879 -0.316122,-0.0973 -0.507118,-0.0209 -0.211067,0.0845 -0.148372,0.14716 0.159853,0.15985 0.278914,0.0115 0.435184,-0.051 0.347265,-0.13896 z M 53.0318,227.71713 c -0.08792,-0.0879 -0.316122,-0.0973 -0.507118,-0.0209 -0.211067,0.0845 -0.148372,0.14716 0.159852,0.15986 0.278915,0.0115 0.435185,-0.0511 0.347266,-0.13897 z m -1.31432,-0.28652 c -0.252965,-0.0662 -0.729215,-0.0686 -1.058333,-0.005 -0.329119,0.0633 -0.122148,0.11747 0.459936,0.12041 0.582083,0.003 0.851362,-0.0488 0.598397,-0.11507 z m 27.243486,0.0219 c -0.08792,-0.0879 -0.316121,-0.0973 -0.507118,-0.0209 -0.211066,0.0845 -0.148372,0.14716 0.159853,0.15985 0.278915,0.0115 0.435184,-0.051 0.347265,-0.13896 z m -2.441883,-0.65786 c -1.791946,-0.56147 -2.677586,-0.66163 -1.912665,-0.21631 0.257723,0.15004 0.419213,0.35477 0.358867,0.45497 -0.06034,0.1002 0.62176,0.19941 1.51579,0.22046 l 1.625508,0.0383 z m -3.241146,-0.68043 c -0.181901,-0.0734 -0.479557,-0.0734 -0.661458,0 -0.181901,0.0734 -0.03307,0.13345 0.330729,0.13345 0.363802,0 0.51263,-0.0601 0.330729,-0.13345 z m 2.050521,-0.51454 c 0,-0.0572 -0.178594,-0.10398 -0.396875,-0.10398 -0.218281,0 -0.396875,0.11532 -0.396875,0.25627 0,0.14096 0.178594,0.18775 0.396875,0.10399 0.218281,-0.0838 0.396875,-0.19909 0.396875,-0.25628 z m -1.780902,-0.27753 c -0.179132,-0.0725 -0.536319,-0.0769 -0.79375,-0.01 -0.257431,0.0671 -0.110869,0.12638 0.325693,0.13178 0.436563,0.005 0.647188,-0.0495 0.468057,-0.12197 z m -6.355036,-1.06002 c -0.181901,-0.0734 -0.479557,-0.0734 -0.661458,0 -0.181901,0.0734 -0.03307,0.13346 0.330729,0.13346 0.363802,0 0.51263,-0.0601 0.330729,-0.13346 z m -1.000758,-2.72218 c 5.559021,-1.35014 8.872076,-1.83646 12.62681,-1.85347 1.646745,-0.007 2.631872,-0.12132 2.753582,-0.31825 0.142006,-0.22977 -0.619901,-0.26089 -3.039545,-0.12414 -5.761497,0.3256 -12.369525,1.3763 -14.372171,2.28522 -1.472663,0.66838 -0.693654,0.67246 2.031324,0.0106 z m -4.55714,-1.77628 c -0.182808,-0.0737 -0.261505,-0.24868 -0.174882,-0.38884 0.09617,-0.1556 0.328614,-0.12669 0.596961,0.0743 0.393826,0.29491 0.398249,0.28577 0.04259,-0.088 -0.697891,-0.73341 -4.781225,-2.41917 -5.096407,-2.10399 -0.31265,0.31265 0.131255,0.52582 2.573452,1.23578 1.323668,0.3848 1.971416,0.91119 1.133893,0.92145 -0.220486,0.003 -0.198438,0.0896 0.06614,0.26053 0.218282,0.14107 0.575469,0.24891 0.79375,0.23965 0.272703,-0.0116 0.292883,-0.0588 0.0645,-0.15084 z m 25.263844,0.0159 c -0.08792,-0.0879 -0.316121,-0.0973 -0.507118,-0.0209 -0.211066,0.0845 -0.148372,0.14716 0.159853,0.15986 0.278915,0.0115 0.435184,-0.0511 0.347265,-0.13897 z m -18.449175,-1.08721 c 2.789444,-0.63637 3.516203,-0.69313 8.73125,-0.68194 4.650829,0.01 6.122933,0.10751 8.069792,0.53463 1.309687,0.28733 2.470547,0.47346 2.579687,0.41362 0.109141,-0.0599 0.198438,-7.58174 0.198438,-16.71532 0,-17.9545 -0.05533,-18.83323 -1.500875,-23.83649 -1.299149,-4.49649 -4.458507,-9.8656 -7.992094,-13.58195 -9.811853,-10.31934 -25.885457,-13.18367 -38.528906,-6.8659 -10.186664,5.09015 -16.961198,14.51615 -18.509528,25.75394 -0.59715,4.33412 -0.493839,29.24088 0.120986,29.1681 0.218281,-0.0258 1.349375,-0.23031 2.513542,-0.45439 1.164166,-0.22408 4.237523,-0.55481 6.82968,-0.73497 4.131102,-0.28713 5.258145,-0.27187 9.128125,0.12356 2.428311,0.24813 5.843861,0.75488 7.590111,1.12613 4.643586,0.98722 4.451128,1.00412 4.670716,-0.41023 0.349399,-2.25045 0.224267,-5.88469 -0.250526,-7.27604 l -0.45144,-1.32291 -1.809103,-0.1323 c -1.601217,-0.11709 -1.887447,-0.2234 -2.490879,-0.9252 -0.737997,-0.85829 -2.985203,-1.53266 -4.892704,-1.46825 -2.321746,0.0784 -4.086593,-0.88314 -4.967527,-2.70647 -0.288289,-0.59669 -0.524162,-1.10717 -0.524162,-1.13441 0,-0.0272 0.342837,-0.11809 0.761859,-0.20189 0.959477,-0.1919 1.755919,-0.94141 1.389602,-1.30773 -0.145095,-0.1451 -0.48017,-0.1767 -0.744613,-0.0702 -0.264443,0.10646 -1.165415,0.20185 -2.00216,0.21197 -1.113945,0.0135 -1.521354,0.11693 -1.521354,0.38634 0,0.20237 -0.126347,0.28986 -0.28077,0.19442 -0.154423,-0.0954 -0.870627,0.0802 -1.591565,0.39036 -1.132016,0.48698 -1.460247,0.52365 -2.406564,0.26883 -0.668316,-0.17996 -1.408207,-0.64796 -1.896701,-1.19973 -0.48545,-0.54832 -1.047039,-0.90467 -1.425735,-0.90467 -0.849998,0 -1.851233,-1.06463 -2.063042,-2.19367 -0.245091,-1.30644 0.478998,-2.72596 1.711147,-3.35455 0.533382,-0.27211 1.107548,-0.79711 1.275925,-1.16665 0.168377,-0.36955 0.787152,-0.9173 1.375056,-1.21723 0.587903,-0.29992 1.068915,-0.7274 1.068915,-0.94995 0,-0.88301 0.804398,-1.92834 1.715191,-2.22893 0.646038,-0.21321 0.930643,-0.46671 0.930643,-0.82892 0,-0.97825 0.759626,-2.03071 1.686455,-2.33659 1.146327,-0.37833 1.405685,-1.36358 0.672783,-2.55578 -0.881809,-1.43442 -0.683922,-2.32904 0.848936,-3.83788 1.323282,-1.30255 1.389558,-1.33271 2.73939,-1.24641 1.284093,0.0821 1.435202,0.0268 2.107012,-0.77146 0.398043,-0.47294 0.951254,-0.85989 1.22936,-0.85989 0.346243,0 0.507502,-0.18767 0.51153,-0.59532 0.0068,-0.69026 0.676044,-1.59935 1.479285,-2.00949 0.384606,-0.19638 0.604943,-0.62709 0.705915,-1.37989 0.15174,-1.13131 1.050492,-2.3653 1.722713,-2.3653 0.210084,0 0.803771,-0.37035 1.319303,-0.82299 0.85493,-0.75064 1.06274,-0.81259 2.363861,-0.70469 1.199614,0.0995 1.468975,0.039 1.693371,-0.3803 0.412398,-0.77057 1.447127,-1.05258 2.6619,-0.72547 0.765515,0.20613 1.150511,0.20233 1.411081,-0.0139 0.197086,-0.16357 0.753545,-0.30794 1.236576,-0.32082 0.48303,-0.0129 1.322355,-0.30281 1.865167,-0.64429 1.639425,-1.03133 3.430691,-0.65595 4.853692,1.01714 0.479716,0.56402 1.20361,1.03385 1.904077,1.2358 0.795908,0.22947 1.304501,0.59232 1.719792,1.22697 0.324322,0.49563 0.827801,0.9638 1.118842,1.04038 1.10646,0.29113 1.975716,1.29719 2.051249,2.37407 0.06625,0.94455 0.1627,1.06412 1.127267,1.3975 1.574651,0.54425 2.053705,1.15284 2.10734,2.67718 0.04097,1.16449 0.167425,1.42378 1.150401,2.35886 0.954416,0.90791 1.104368,1.20161 1.104368,2.163 0,1.619 -0.603767,2.56847 -2.12275,3.3382 -1.497704,0.75895 -1.683975,1.32944 -0.517708,1.5856 0.477688,0.10492 1.13405,0.59229 1.631782,1.21165 0.524648,0.65285 1.053448,1.03613 1.429533,1.03613 0.328282,0 0.933433,0.28207 1.344781,0.62683 0.541083,0.45349 1.072347,0.62643 1.921154,0.62538 0.946702,-0.001 1.291556,0.13608 1.785937,0.71084 0.336979,0.39176 0.612688,0.9223 0.612688,1.17899 0,0.25668 0.297656,0.72551 0.661458,1.04183 0.663667,0.57705 0.821074,1.41135 0.495478,2.62616 -0.215836,0.80529 -1.672752,1.65663 -2.835017,1.65663 -0.796722,0 -1.023242,0.13359 -1.372809,0.80958 -0.265777,0.51395 -0.83914,0.98981 -1.570203,1.30318 -0.673299,0.28861 -1.226202,0.7288 -1.331288,1.0599 -0.328578,1.03526 -1.734675,2.36701 -2.802835,2.65463 -0.811625,0.21855 -1.14798,0.50191 -1.564196,1.31776 -0.617013,1.20945 -1.236816,1.60359 -2.69242,1.71215 -0.689687,0.0514 -1.295012,0.31064 -1.758937,0.75316 -1.336159,1.27453 -3.093032,1.57417 -4.715513,0.80425 -0.777362,-0.36888 -1.019344,-0.38163 -1.627487,-0.0857 -0.392896,0.19117 -1.309668,0.41593 -2.037273,0.49946 l -1.322916,0.15186 -0.581259,1.73826 c -0.612227,1.83087 -1.325566,8.2259 -1.037947,9.30511 0.113566,0.42612 0.674064,0.82341 1.947663,1.38052 0.983515,0.43022 2.681178,1.34872 3.772584,2.04111 1.281981,0.81329 2.171681,1.2112 2.513542,1.12414 0.291042,-0.0741 1.898386,-0.44713 3.571875,-0.82891 z m 15.478125,0.7179 c -0.739617,-0.31783 -1.984375,-0.31783 -1.984375,0 0,0.14552 0.565547,0.25621 1.256771,0.24599 0.945611,-0.014 1.125756,-0.0749 0.727604,-0.24599 z m -61.349499,-0.40874 c 0.563474,-0.2248 1.262624,-0.5238 1.553666,-0.66443 0.291041,-0.14064 1.064948,-0.42903 1.719791,-0.64087 0.962826,-0.31148 1.013448,-0.35422 0.264584,-0.22338 -0.509323,0.089 -1.377898,0.14523 -1.930166,0.125 -1.407231,-0.0516 -2.832334,0.58732 -2.832334,1.26975 0,0.64928 -0.05279,0.64351 1.224459,0.13393 z m 37.068466,-0.0157 c -0.08792,-0.0879 -0.316122,-0.0973 -0.507118,-0.0209 -0.211067,0.0845 -0.148372,0.14716 0.159853,0.15986 0.278914,0.0115 0.435184,-0.0511 0.347265,-0.13897 z m -1.058333,-0.26458 c -0.08792,-0.0879 -0.316122,-0.0973 -0.507118,-0.0209 -0.211067,0.0845 -0.148372,0.14716 0.159852,0.15985 0.278915,0.0115 0.435185,-0.051 0.347266,-0.13896 z m -5.03878,-5.63021 c 0.0945,-1.54445 0.203902,-2.68921 0.243119,-2.54391 0.03922,0.1453 0.214042,0.97856 0.388501,1.85168 0.502048,2.51263 0.735336,1.1617 0.753884,-4.36562 0.02293,-6.83186 -0.344171,-9.88107 -1.732475,-14.39044 -0.353442,-1.14802 -0.579803,-2.15013 -0.503023,-2.22691 0.07678,-0.0768 0.139598,0.0248 0.139598,0.22578 0,0.81493 0.74366,-0.46132 1.401905,-2.40592 0.466203,-1.37726 0.75823,-3.02801 0.941596,-5.32259 0.306938,-3.84092 0.612146,-4.71995 2.143928,-6.17471 0.612899,-0.58209 2.067954,-2.24794 3.233455,-3.70191 2.00133,-2.49666 2.084699,-2.65169 1.500201,-2.78967 -0.501422,-0.11837 -0.651834,-0.37639 -0.792448,-1.35941 -0.191111,-1.33604 -1.057376,-3.48655 -1.519489,-3.77215 -0.515059,-0.31833 -0.319521,0.5318 0.429288,1.86637 0.575074,1.02494 0.721965,1.62411 0.714668,2.91516 -0.01,1.76456 -0.10332,1.93307 -2.617537,4.72494 l -1.19135,1.32292 -0.0293,-4.23334 c -0.02154,-3.11138 -0.09511,-4.00543 -0.27759,-3.37343 -0.144969,0.50207 -0.422064,0.85989 -0.665903,0.85989 -0.292346,0 -0.361708,0.13889 -0.231232,0.46302 0.102512,0.25466 0.250734,1.4395 0.329383,2.63298 0.109619,1.66343 0.02717,2.57439 -0.353211,3.9026 -0.50803,1.77393 -0.899693,2.24353 -0.899693,1.07874 0,-1.39609 -1.403891,-3.81303 -4.230697,-7.28359 -0.985859,-1.21037 -0.277426,0.25539 1.088511,2.25215 1.910585,2.79293 2.188525,3.71658 2.188507,7.27285 -1.2e-5,2.38879 -0.124403,3.44075 -0.578793,4.89479 -0.759007,2.42881 -0.947636,2.71588 -1.489236,2.26639 -0.721949,-0.59916 -1.238376,-2.93927 -1.463588,-6.63201 -0.125167,-2.05232 -0.394751,-4.05149 -0.633686,-4.69926 -0.347852,-0.94305 -1.894997,-3.50283 -2.117132,-3.50283 -0.03682,0 0.330567,1.19003 0.81641,2.64452 0.688827,2.06215 0.935883,3.35854 1.121899,5.88698 0.131201,1.78335 0.51549,4.32443 0.853976,5.64684 l 0.615428,2.40437 -1.459237,-0.91044 c -2.111543,-1.31742 -3.675502,-2.4132 -5.031112,-3.52503 -0.654844,-0.53708 -1.905,-1.33738 -2.778125,-1.77844 -1.75084,-0.88443 -4.810454,-1.81008 -5.082799,-1.53773 -0.329058,0.32906 0.358377,0.70154 2.27488,1.23263 2.288681,0.63422 4.350813,2.05568 5.786935,3.98902 0.773462,1.04125 1.394443,1.52157 2.841817,2.19809 1.018646,0.47613 2.090209,1.14785 2.38125,1.49271 l 0.529167,0.62702 -0.661458,-0.44472 c -2.603568,-1.75048 -2.985918,-1.89141 -5.429422,-2.00129 -2.867906,-0.12898 -4.211583,0.28969 -4.419436,1.377 -0.160764,0.84098 0.03085,0.85489 1.458877,0.10585 0.798744,-0.41896 1.565379,-0.58216 2.709382,-0.57679 2.071043,0.01 3.744883,0.81966 5.721903,2.76872 1.250777,1.23308 1.589155,1.77528 2.060696,3.30196 0.725403,2.34858 1.023822,7.28775 0.926282,15.33102 -0.04815,3.97087 0.01212,5.86613 0.173459,5.45434 0.135991,-0.3471 0.324573,-1.89473 0.419071,-3.43919 z m -27.433312,2.10305 c 6.581725,-1.66049 16.085541,-1.49488 23.763954,0.41409 1.614167,0.40131 2.264487,0.34607 1.750699,-0.1487 -0.687333,-0.66189 -12.176577,-2.51472 -17.577153,-2.8346 -2.786407,-0.16504 -9.082128,0.24359 -11.443229,0.74272 l -1.256771,0.26568 v 1.5645 1.5645 l 1.389062,-0.53378 c 0.763985,-0.29358 2.282032,-0.75907 3.373438,-1.03441 z m -2.188325,1.41049 c -0.08792,-0.0879 -0.316122,-0.0973 -0.507118,-0.0209 -0.211067,0.0845 -0.148372,0.14716 0.159853,0.15986 0.278914,0.0115 0.435184,-0.0511 0.347265,-0.13897 z m 22.225,0 c -0.08792,-0.0879 -0.316122,-0.0973 -0.507118,-0.0209 -0.211067,0.0845 -0.148372,0.14716 0.159853,0.15986 0.278914,0.0115 0.435184,-0.0511 0.347265,-0.13897 z m -7.937889,-0.5624 c -0.548949,-0.0573 -1.382386,-0.0563 -1.852083,0.002 -0.469697,0.0584 -0.02056,0.10531 0.998088,0.10414 1.018646,-0.001 1.402944,-0.049 0.853995,-0.10627 z M 27.6318,215.54624 c -0.08792,-0.0879 -0.316122,-0.0973 -0.507118,-0.0209 -0.211067,0.0845 -0.148372,0.14716 0.159852,0.15985 0.278915,0.0115 0.435185,-0.051 0.347266,-0.13896 z m 29.448416,-14.1116 c 0.346283,-1.33808 1.763617,-2.9264 2.611367,-2.9264 0.305594,0 0.555625,-0.0498 0.555625,-0.11065 0,-0.0609 0.0793,-0.31732 0.176229,-0.5699 0.155196,-0.40444 0.04223,-0.44127 -0.946578,-0.30865 -2.110373,0.28306 -3.200236,2.01652 -3.353079,5.33315 l -0.09854,2.13834 0.375495,-1.19063 c 0.206522,-0.65484 0.51229,-1.71921 0.679483,-2.36526 z m 8.43661,1.47625 c -0.06063,-0.0524 -0.884149,-0.16371 -1.830035,-0.24738 -1.064703,-0.0942 -1.518226,-0.065 -1.190625,0.0767 0.501488,0.21682 3.254048,0.37239 3.02066,0.17072 z M 50.52377,202.55485 c -0.327422,-0.0631 -0.863203,-0.0631 -1.190625,0 -0.327422,0.0631 -0.05953,0.11466 0.595313,0.11466 0.654844,0 0.922734,-0.0516 0.595312,-0.11466 z m 10.522494,-1.27488 c 0.184076,-0.2218 0.267159,-0.4708 0.184628,-0.55333 -0.245661,-0.24566 -1.187721,0.1526 -1.347813,0.56979 -0.201496,0.5251 0.724612,0.51199 1.163185,-0.0165 z m 1.958323,-0.16459 c 0.822092,-0.37457 0.638948,-0.75506 -0.363437,-0.75506 -0.701034,0 -1.231613,0.54497 -0.876407,0.90018 0.227847,0.22784 0.488152,0.19738 1.239844,-0.14512 z m 7.032204,0.0387 c 0,-0.31837 -1.508078,-0.31837 -2.248958,0 -0.388632,0.167 -0.160264,0.23233 0.859896,0.24599 0.763984,0.0102 1.389062,-0.10047 1.389062,-0.24599 z m -10.492188,-0.64801 c 0.979006,-0.74673 1.803757,-0.87908 5.994271,-0.96192 l 3.042709,-0.0601 -3.042709,-0.17783 c -1.673489,-0.0978 -3.302771,-0.31734 -3.620626,-0.48787 -0.707954,-0.37981 -0.961187,-0.39526 -0.744999,-0.0455 0.08994,0.14552 -0.08163,0.26458 -0.38126,0.26458 -0.29963,0 -0.544781,0.11104 -0.544781,0.24676 0,0.13571 -0.227474,0.31895 -0.505497,0.40719 -0.469557,0.14903 -1.549754,1.46272 -1.202741,1.46272 0.08582,0 0.538359,-0.2916 1.005633,-0.64801 z m -16.36302,0.11884 c -1.227357,-0.3123 -2.996806,-0.3123 -2.513542,0 0.218281,0.14107 1.051719,0.24422 1.852083,0.22923 1.215749,-0.0228 1.324594,-0.0605 0.661459,-0.22923 z m 6.303192,-0.29669 c -0.593999,-0.594 -1.222996,-0.48209 -0.971663,0.17288 0.08197,0.21362 0.46042,0.3884 0.840991,0.3884 h 0.691947 z m -1.408401,-0.35241 c 0,-0.708 -0.24761,-0.92501 -3.042708,-2.66665 l -1.852083,-1.15405 1.5875,0.15476 c 0.873125,0.0851 1.521313,0.0821 1.440418,-0.007 -0.0809,-0.0889 -0.854801,-0.21323 -1.719792,-0.27638 -0.86499,-0.0631 -1.918167,-0.24892 -2.340392,-0.41282 -1.245318,-0.48341 -1.388366,-0.17359 -0.305461,0.66158 0.554528,0.42767 1.695886,1.33785 2.536351,2.02262 1.56266,1.27318 3.143061,2.32409 3.49773,2.32585 0.109141,5.5e-4 0.198437,-0.29111 0.198437,-0.64811 z m 23.922713,-0.0502 c 0.243072,-0.63344 0.05361,-0.68208 -0.320908,-0.0824 -0.177625,0.28442 -0.215622,0.51713 -0.08444,0.51713 0.131184,0 0.31359,-0.19563 0.405345,-0.43474 z m -30.995281,-0.26798 c -0.179132,-0.0725 -0.536319,-0.0769 -0.79375,-0.01 -0.257431,0.0671 -0.110869,0.12639 0.325693,0.13178 0.436563,0.005 0.647188,-0.0495 0.468057,-0.12197 z m -1.923265,-0.19501 c 0,-0.0572 -0.184777,-0.17489 -0.410617,-0.26156 -0.235459,-0.0904 -0.341662,-0.046 -0.248968,0.10399 0.155378,0.25141 0.659585,0.37186 0.659585,0.15757 z m 3.96875,-1.06886 c 0.218281,-0.0488 -0.734219,-0.0868 -2.116667,-0.0846 -1.476489,0.002 -2.131469,0.0716 -1.5875,0.16774 0.875949,0.15476 2.836389,0.11073 3.704167,-0.0832 z m 7.478117,-0.33632 c -0.325421,-0.0628 -0.920733,-0.0644 -1.322916,-0.004 -0.402184,0.0608 -0.13593,0.11219 0.591674,0.11418 0.727604,0.002 1.056663,-0.0478 0.731242,-0.11057 z m 15.408341,-0.32922 1.852084,-0.20874 -2.14974,-0.0348 c -1.182357,-0.0191 -2.551575,-0.11141 -3.042708,-0.20507 -0.491133,-0.0937 -0.799938,-0.0701 -0.686233,0.0524 0.113705,0.12248 -0.06489,0.37865 -0.396875,0.56927 -0.646961,0.37146 -0.280904,0.35714 4.423472,-0.17308 z m -9.486855,-0.0754 c 0.110917,-0.17946 0.282353,-1.64468 0.38097,-3.25604 0.203829,-3.33051 0.619419,-4.42016 2.457426,-6.44326 0.609208,-0.67055 1.686147,-1.93356 2.393197,-2.80669 0.707051,-0.87312 1.894201,-2.15358 2.638113,-2.84545 1.36766,-1.272 1.067406,-1.4068 -0.631809,-0.28367 -0.986685,0.65218 -6.437549,6.29525 -7.204504,7.45856 -0.756875,1.14802 -1.071284,3.33204 -0.868688,6.03428 0.175889,2.34604 0.382256,2.87531 0.835295,2.14227 z m 19.25426,-0.9721 c 0.808447,-0.89333 0.06467,-0.63443 -0.788216,0.27437 -0.554748,0.59111 -0.624845,0.74953 -0.244978,0.55367 0.29267,-0.1509 0.757607,-0.52352 1.033194,-0.82804 z m -42.983378,0.11334 c 0.416189,-0.21522 0.805972,-0.5391 0.866185,-0.71974 0.07044,-0.21131 0.959679,-0.38855 2.493553,-0.49702 2.742054,-0.1939 4.298923,-0.7353 1.767856,-0.61476 -1.433651,0.0683 -1.459178,0.06 -0.354329,-0.11543 0.654844,-0.10396 1.352765,-0.29047 1.550936,-0.41448 0.222221,-0.13906 0.43786,-0.1 0.562659,0.10194 0.156312,0.25292 0.508665,0.26171 1.548698,0.0387 0.740492,-0.15881 1.696637,-0.21869 2.124768,-0.13306 1.042554,0.20851 1.846322,-0.87911 1.457096,-1.97167 -0.268855,-0.75467 -0.767956,-0.8421 -2.74624,-0.48103 l -0.926042,0.16902 0.859896,-0.27125 c 0.472943,-0.14919 0.859896,-0.39494 0.859896,-0.5461 0,-0.15117 -0.20836,-0.21181 -0.463021,-0.13476 -0.911221,0.2757 -3.9196,0.68479 -4.828646,0.65663 -0.556004,-0.0172 -0.714592,-0.0796 -0.396875,-0.15598 1.29698,-0.31196 0.92466,-0.6071 -0.806979,-0.63969 l -1.838854,-0.0346 2.116666,-0.23452 c 2.422142,-0.26836 2.778125,-0.36485 2.778125,-0.75301 0,-0.18885 -1.18089,-0.23953 -3.63802,-0.15613 l -3.638021,0.12347 2.910416,-0.24093 c 1.60073,-0.13251 3.178308,-0.30639 3.50573,-0.38638 0.745671,-0.18219 0.782348,-0.66454 0.05053,-0.66454 -0.332336,0 -0.473885,-0.11471 -0.362978,-0.29416 0.467228,-0.75599 -2.23892,-1.07218 -3.230739,-0.37748 -0.493261,0.34549 -0.661607,0.32954 -1.580226,-0.14977 -1.901523,-0.99215 -4.596892,-0.29011 -5.167193,1.34586 -0.159759,0.45828 -0.515011,0.81349 -0.913655,0.91355 -0.772343,0.19384 -1.691793,1.58466 -1.693189,2.56122 -0.0013,0.93057 0.945737,2.0862 1.709699,2.0862 0.914171,0 1.076758,-0.75301 0.231939,-1.07421 -1.016985,-0.38665 -0.626487,-0.54036 0.856429,-0.33711 0.713912,0.0978 1.150086,0.22723 0.969275,0.2875 -0.659069,0.21969 -0.305725,0.59465 0.560366,0.59465 1.453178,0 3.34422,0.31956 3.34422,0.56513 0,0.12574 -0.922735,0.25065 -2.050521,0.27757 -1.665595,0.0398 -1.777348,0.065 -0.595313,0.13473 1.869424,0.11021 2.645834,0.29071 2.645834,0.61511 0,0.14317 -0.800808,0.26349 -1.785938,0.26835 l -1.785937,0.009 0.624624,0.52036 c 0.746122,0.62159 1.388303,0.65601 2.407319,0.12906 z m 7.754863,-2.70246 c 0.257431,-0.0671 0.614619,-0.0627 0.79375,0.01 0.179132,0.0725 -0.03149,0.12736 -0.468056,0.12197 -0.436563,-0.005 -0.583125,-0.0647 -0.325694,-0.13177 z m -3.643056,-0.34581 c 0.08994,-0.14552 0.342115,-0.26459 0.560396,-0.26459 0.218282,0 0.323291,0.11907 0.233354,0.26459 -0.08994,0.14552 -0.342115,0.26458 -0.560397,0.26458 -0.218281,0 -0.32329,-0.11906 -0.233353,-0.26458 z m 2.140585,-0.26205 c 0.144124,-0.14412 0.852546,-0.32053 1.574271,-0.39202 l 1.312227,-0.12998 -1.058333,0.37169 c -1.282287,0.45034 -2.203976,0.52613 -1.828165,0.15031 z m -11.136419,-1.06087 c -0.10483,-0.16962 0.767987,-0.26313 2.431781,-0.26053 1.773382,0.003 2.469614,0.0853 2.198428,0.26053 -0.524701,0.33909 -4.420641,0.33909 -4.630209,0 z m 6.552076,-0.45444 c 0.402183,-0.0608 0.997496,-0.0592 1.322917,0.004 0.325421,0.0628 -0.0036,0.11256 -0.731243,0.11057 -0.727604,-0.002 -0.993857,-0.0534 -0.591674,-0.11418 z m 15.783168,5.12158 c -0.281396,-0.24341 -3.682119,-0.3905 -3.682119,-0.15927 0,0.14005 0.853282,0.25463 1.896181,0.25463 1.042899,0 1.846571,-0.0429 1.785938,-0.0954 z m 19.012896,-0.097 c -0.541857,-0.0568 -1.494357,-0.0576 -2.116667,-0.002 -0.62231,0.0559 -0.178973,0.10241 0.985194,0.10337 1.164167,9.6e-4 1.67333,-0.0448 1.131473,-0.10162 z m 0.919048,-0.79894 c -1.637109,-0.0464 -4.316016,-0.0464 -5.953125,0 -1.637109,0.0464 -0.297656,0.0844 2.976562,0.0844 3.274219,0 4.613672,-0.038 2.976563,-0.0844 z m 4.110067,-1.475 c 0.543526,-0.49767 0.689959,-0.51895 1.455209,-0.21147 0.467978,0.18803 1.029464,0.39416 1.247745,0.45807 0.52274,0.15303 2.001616,-0.77515 2.389336,-1.49961 l 0.306442,-0.57259 -4.359185,0.19228 c -2.988076,0.13181 -4.5147,0.10193 -4.853618,-0.095 -0.372552,-0.21645 0.483889,-0.29271 3.474316,-0.30936 3.903223,-0.0217 6.341714,-0.14503 7.967322,-0.40288 0.955142,-0.1515 1.574517,-0.74888 1.827491,-1.76261 0.143928,-0.57675 0.03198,-0.85245 -0.574699,-1.4153 -0.414396,-0.38446 -0.720567,-0.89954 -0.68038,-1.14462 0.04019,-0.24509 -0.185425,-0.72307 -0.50136,-1.06219 -0.476456,-0.51141 -0.766232,-0.59495 -1.699048,-0.48981 -0.986867,0.11124 -1.20611,0.0339 -1.789872,-0.63137 -0.462769,-0.52738 -0.914105,-0.75813 -1.482872,-0.75813 -0.449693,0 -0.817623,0.11906 -0.817623,0.26458 0,0.31088 -7.112656,0.31088 -8.334375,0 -0.684158,-0.17409 -0.59283,-0.21157 0.661458,-0.27148 0.800365,-0.0382 2.73513,-0.0428 4.299479,-0.0103 2.675315,0.0557 2.844271,0.0282 2.844271,-0.46298 0,-0.28723 -0.345425,-0.89202 -0.767612,-1.34397 -0.647872,-0.69355 -0.961364,-0.82173 -2.009697,-0.82173 -0.698462,0 -1.578404,0.19867 -2.010514,0.45392 -0.725967,0.42884 -0.810887,0.42884 -1.536854,0 -0.422635,-0.24966 -1.083392,-0.45392 -1.468348,-0.45392 -0.896721,0 -2.169269,0.65687 -2.51155,1.29643 -0.146352,0.27346 -0.715428,0.7288 -1.264614,1.01186 -0.733544,0.37808 -1.09837,0.79753 -1.374791,1.5806 -0.348989,0.98866 -0.334424,1.14623 0.200879,2.17324 0.435268,0.83507 0.511507,1.22994 0.310126,1.60622 -0.383546,0.71667 -0.331664,1.18903 0.203137,1.84949 0.419214,0.5177 0.783469,0.59365 3.361437,0.70081 3.207001,0.13332 4.078984,0.35979 1.438019,0.37349 l -1.697743,0.009 0.655991,0.54576 c 0.573787,0.47737 0.905342,0.52873 2.645833,0.40982 1.094414,-0.0748 1.71509,-0.077 1.379282,-0.005 -0.802171,0.17204 -0.631233,0.5904 0.48607,1.18961 1.009123,0.5412 1.672868,0.44072 2.580912,-0.39073 z m -6.028296,-2.8254 c -0.866743,-0.10622 0.925403,-0.19577 4.431771,-0.22146 3.777014,-0.0277 5.886979,0.0517 5.886979,0.22146 0,0.29588 -7.904337,0.29588 -10.31875,0 z m 1.5875,-1.05834 c -0.687685,-0.10691 0.932898,-0.18866 3.836458,-0.19354 2.811039,-0.005 4.677182,0.0806 4.233333,0.19354 -0.984286,0.25046 -6.458811,0.25046 -8.069791,0 z m -0.79375,-1.03726 c 0.553455,-0.31715 12.485915,-0.63148 12.912566,-0.34015 0.213633,0.14588 -1.095181,0.30136 -3.439584,0.40861 -5.291108,0.24204 -9.956009,0.20833 -9.472982,-0.0685 z m 7.213534,-2.06301 c 0.402183,-0.0608 0.997495,-0.0592 1.322916,0.004 0.325421,0.0628 -0.0036,0.11256 -0.731242,0.11057 -0.727604,-0.002 -0.993858,-0.0534 -0.591674,-0.11418 z m -5.146477,-1.3138 c 0.190996,-0.0764 0.419199,-0.067 0.507118,0.0209 0.08792,0.0879 -0.06835,0.15045 -0.347265,0.13896 -0.308225,-0.0127 -0.37092,-0.0754 -0.159853,-0.15985 z m 2.237457,-0.003 c 0.257431,-0.0671 0.614619,-0.0627 0.79375,0.01 0.179132,0.0725 -0.03149,0.12736 -0.468056,0.12197 -0.436562,-0.005 -0.583125,-0.0647 -0.325694,-0.13177 z m -23.949827,8.73222 c -0.254661,-0.0665 -0.67138,-0.0665 -0.926041,0 -0.254662,0.0666 -0.0463,0.121 0.46302,0.121 0.509323,0 0.717683,-0.0545 0.463021,-0.121 z m 16.867188,-0.10419 c -1.891771,-0.10149 -3.677709,-0.21881 -3.96875,-0.26072 -0.291042,-0.0419 -1.362604,-0.0393 -2.38125,0.006 -3.602568,0.1595 -0.238694,0.47263 4.894791,0.45564 l 4.894792,-0.0162 z M 46.95917,194.3918 c 0.841014,-0.58907 0.727079,-0.91104 -0.322389,-0.91104 -0.990827,0 -1.49776,0.41477 -0.746458,0.61075 0.284491,0.0742 0.17652,0.13359 -0.276959,0.15231 -0.422161,0.0174 -0.672581,0.14499 -0.579698,0.29528 0.245049,0.39649 1.259977,0.31886 1.925504,-0.1473 z m 18.711996,0.15947 c 1.282056,-0.19969 1.259582,-0.20714 -0.727604,-0.2414 -1.214193,-0.0209 -2.050521,0.0726 -2.050521,0.22923 0,0.30352 0.882771,0.30738 2.778125,0.0122 z M 62.5568,193.32091 c -0.08792,-0.0879 -0.316122,-0.0973 -0.507118,-0.0209 -0.211067,0.0845 -0.148372,0.14716 0.159852,0.15986 0.278915,0.0115 0.435185,-0.0511 0.347266,-0.13897 z m 2.645833,-0.26458 c -0.08792,-0.0879 -0.316122,-0.0973 -0.507118,-0.0209 -0.211067,0.0845 -0.148372,0.14716 0.159853,0.15985 0.278914,0.0115 0.435184,-0.0511 0.347265,-0.13896 z m -5.484592,-0.36932 c 0,-0.3315 -0.280787,-0.3315 -0.79375,0 -0.320929,0.2074 -0.282955,0.25726 0.198438,0.26054 0.327421,0.002 0.595312,-0.11501 0.595312,-0.26054 z m -0.600825,-1.74735 c -0.08792,-0.0879 -0.316121,-0.0973 -0.507118,-0.0209 -0.211066,0.0845 -0.148372,0.14716 0.159853,0.15986 0.278915,0.0115 0.435184,-0.0511 0.347265,-0.13897 z m -15.59791,-3.20747 c -0.541857,-0.0568 -1.494357,-0.0576 -2.116667,-0.002 -0.62231,0.0559 -0.178973,0.10241 0.985194,0.10337 1.164166,9.6e-4 1.673329,-0.0448 1.131473,-0.10162 z m 14.070857,-2.85904 c 0.745395,-1.0938 1.768067,-2.81126 2.272605,-3.81659 0.504538,-1.00533 1.303455,-2.13217 1.77537,-2.50411 0.820575,-0.64672 0.830684,-0.67636 0.231588,-0.67917 -0.380923,-0.002 -1.042177,0.4128 -1.687201,1.05783 l -1.060762,1.06076 -0.637935,-0.68834 c -0.38474,-0.41514 -0.800062,-0.62613 -1.046418,-0.5316 -0.224665,0.0862 -0.517806,0.15675 -0.651425,0.15675 -0.481803,0 -0.228851,0.45065 0.418514,0.74561 0.996216,0.45391 0.897296,1.83525 -0.266442,3.72066 -0.968538,1.56915 -1.539452,3.11786 -1.295109,3.51322 0.228106,0.36908 0.508778,0.0758 1.947215,-2.03502 z m -18.438441,1.81948 c -0.179131,-0.0725 -0.536319,-0.0769 -0.79375,-0.01 -0.257431,0.0671 -0.110868,0.12638 0.325694,0.13177 0.436563,0.005 0.647188,-0.0495 0.468056,-0.12196 z m -5.742619,-0.95288 c 1.242575,-0.0962 1.22573,-0.10341 -0.347833,-0.14879 -1.554862,-0.0448 -1.653143,-0.0121 -1.645231,0.54762 0.0076,0.54037 0.03974,0.5541 0.347833,0.14879 0.213316,-0.28063 0.824556,-0.48408 1.645231,-0.54762 z m 1.371959,0.67234 c -0.400182,-0.0606 -1.055026,-0.0606 -1.455208,0 -0.400183,0.0606 -0.07276,0.11022 0.727604,0.11022 0.800364,0 1.127786,-0.0496 0.727604,-0.11022 z m 7.138238,-0.23493 c -0.08792,-0.0879 -0.316122,-0.0973 -0.507118,-0.0209 -0.211067,0.0845 -0.148372,0.14716 0.159852,0.15986 0.278915,0.0115 0.435185,-0.051 0.347266,-0.13897 z m -5.68303,-0.54454 c -0.181901,-0.0734 -0.479557,-0.0734 -0.661458,0 -0.181901,0.0734 -0.03307,0.13345 0.330729,0.13345 0.363802,0 0.51263,-0.06 0.330729,-0.13345 z m 5.953125,-0.27174 c -0.254661,-0.0666 -0.67138,-0.0666 -0.926041,0 -0.254662,0.0665 -0.0463,0.121 0.46302,0.121 0.509323,0 0.717683,-0.0545 0.463021,-0.121 z m -0.921006,-0.78492 c -0.179131,-0.0725 -0.536319,-0.0769 -0.79375,-0.01 -0.257431,0.0671 -0.110869,0.12639 0.325694,0.13178 0.436562,0.005 0.647188,-0.0495 0.468056,-0.12197 z m 6.74184,-0.0192 c -0.545704,-0.0571 -1.438672,-0.0571 -1.984375,0 -0.545704,0.0571 -0.09922,0.10379 0.992187,0.10379 1.091406,0 1.537891,-0.0467 0.992188,-0.10379 z M 37.963056,184.2926 c -0.541857,-0.0568 -1.494357,-0.0576 -2.116667,-0.002 -0.62231,0.0559 -0.178973,0.10241 0.985194,0.10337 1.164166,9.6e-4 1.673329,-0.0448 1.131473,-0.10163 z m 9.124769,-0.25851 c -0.325421,-0.0628 -0.920734,-0.0644 -1.322917,-0.004 -0.402183,0.0608 -0.135929,0.1122 0.591675,0.11419 0.727604,0.002 1.056663,-0.0478 0.731242,-0.11058 z m 1.743815,-0.73418 c -0.193042,-0.19304 -3.927668,-0.2287 -4.117059,-0.0393 -0.09129,0.0913 0.826203,0.16598 2.038877,0.16598 1.212673,0 2.147855,-0.057 2.078182,-0.12667 z m -0.814418,-0.8594 c -0.541856,-0.0568 -1.494356,-0.0576 -2.116666,-0.002 -0.62231,0.0559 -0.178973,0.10241 0.985193,0.10337 1.164167,9.6e-4 1.67333,-0.0448 1.131473,-0.10162 z m -1.351449,-0.66015 c -0.7217,-0.19123 -1.098985,-0.18335 -1.309688,0.0273 -0.218225,0.21823 0.04803,0.28878 1.013727,0.26862 l 1.309687,-0.0273 z m 21.696937,-3.82021 c -0.143427,-0.14343 -2.035824,3.41573 -2.02374,3.80619 0.0035,0.11277 0.492668,-0.66508 1.087063,-1.72856 0.594394,-1.06348 1.015899,-1.99841 0.936677,-2.07763 z m -0.35539,3.02317 c 0.145746,-0.57832 0.13755,-0.58135 -0.232647,-0.0858 -0.424964,0.5688 -0.513166,1.05285 -0.151069,0.82906 0.127956,-0.0791 0.300628,-0.41353 0.383716,-0.74322 z m -29.323654,-0.19894 c 0,-0.50754 -0.839423,-0.66947 -1.335627,-0.25766 -0.631569,0.52416 -0.438499,0.82197 0.475731,0.73382 0.547254,-0.0528 0.859896,-0.22589 0.859896,-0.47616 z m 9.594231,0.34375 c -0.252965,-0.0662 -0.729215,-0.0686 -1.058334,-0.005 -0.329118,0.0633 -0.122147,0.11747 0.459936,0.12041 0.582084,0.003 0.851363,-0.0488 0.598398,-0.11507 z m 14.945873,-0.005 c -0.327422,-0.0631 -0.863203,-0.0631 -1.190625,0 -0.327422,0.0631 -0.05953,0.11466 0.595313,0.11466 0.654844,0 0.922734,-0.0516 0.595312,-0.11466 z m 8.466667,-0.005 c -0.472943,-0.0587 -1.246849,-0.0587 -1.719792,0 -0.472942,0.0587 -0.08599,0.10671 0.859896,0.10671 0.945886,0 1.332839,-0.048 0.859896,-0.10671 z M 46.320901,179.9674 c 0.383427,-0.3016 0.69714,-0.77785 0.69714,-1.05833 0,-0.36429 0.184496,-0.50997 0.645844,-0.50997 0.355213,0 0.719428,-0.11906 0.809364,-0.26458 0.100857,-0.16319 -0.425479,-0.28051 -1.373447,-0.30615 l -1.536969,-0.0416 1.263264,-0.15687 c 1.586185,-0.19697 1.637251,-0.6321 0.100707,-0.85812 -1.83197,-0.26948 -3.593846,-1.59124 -3.607046,-2.706 -0.0052,-0.43635 0.130175,-0.47508 1.111683,-0.31813 0.614662,0.0983 1.308647,0.35163 1.542188,0.56298 0.531173,0.4807 1.694216,0.52894 1.403282,0.0582 -0.11084,-0.17934 -0.227179,-0.50677 -0.258531,-0.72761 -0.03135,-0.22084 -0.139794,-0.66797 -0.240981,-0.99362 -0.134787,-0.43379 -0.059,-0.64006 0.28345,-0.77147 0.343483,-0.1318 0.725629,0.12343 1.441176,0.96257 0.829014,0.9722 1.077226,1.11596 1.669919,0.96721 0.900462,-0.22601 0.669476,-0.95991 -0.305648,-0.97113 -0.595535,-0.007 -0.631679,-0.0474 -0.243591,-0.27364 0.420913,-0.24531 0.400712,-0.37777 -0.264583,-1.73491 l -0.720289,-1.46931 0.584061,-0.47316 c 0.321234,-0.26024 0.509749,-0.54747 0.418924,-0.6383 -0.09083,-0.0908 0.0035,-0.18311 0.209688,-0.20508 0.446425,-0.0476 1.188553,-0.13004 2.094618,-0.23277 0.393459,-0.0446 0.12546,-0.14852 -0.661458,-0.25645 l -1.322917,-0.18145 1.12448,-0.0416 c 1.125931,-0.0416 1.354416,-0.23497 0.860895,-0.72849 -0.175056,-0.17505 0.291477,-0.26533 1.389063,-0.26878 0.908955,-0.003 2.154657,-0.0822 2.768227,-0.17621 0.808134,-0.12388 1.222201,-0.0644 1.502455,0.21587 0.580505,0.5805 0.909149,0.46954 1.00241,-0.33847 0.04656,-0.40338 0.269136,-0.76044 0.501438,-0.80442 0.567799,-0.1075 2.057581,0.4997 1.62176,0.66099 -0.262496,0.0971 -0.270324,0.21257 -0.03375,0.49763 0.200374,0.24143 0.851506,0.37114 1.863127,0.37114 1.527047,0 2.130353,0.38157 0.95979,0.60703 -0.333798,0.0643 -0.119997,0.13049 0.486697,0.15069 0.915002,0.0305 1.128528,-0.0661 1.383391,-0.62543 0.34092,-0.74823 1.040828,-0.87581 1.286898,-0.23456 0.0901,0.2348 -0.08199,1.0087 -0.382417,1.71979 -0.300428,0.7111 -0.437413,1.2929 -0.304411,1.2929 0.502724,0 0.216583,0.49608 -0.332767,0.57691 -0.988902,0.14551 -0.896609,0.74601 0.114658,0.74601 0.56597,0 1.084188,0.19569 1.378038,0.5204 0.559382,0.61811 0.619585,1.82688 0.107153,2.15147 -0.282526,0.17896 -0.254036,0.23134 0.127526,0.23449 0.325016,0.003 0.440301,0.13703 0.340582,0.39689 -0.08881,0.23143 0.06425,0.5079 0.372493,0.67287 0.421761,0.22572 0.55231,0.18802 0.673131,-0.1944 0.386976,-1.22485 0.655257,-1.66506 1.014744,-1.66506 0.310749,0 0.363555,0.2825 0.259647,1.38907 -0.255312,2.71895 -0.332013,3.01469 -1.135127,4.37678 -0.446844,0.75784 -0.75874,1.3779 -0.693103,1.3779 0.06564,0 0.795443,-0.65484 1.621793,-1.45521 1.564753,-1.51554 1.835266,-1.69998 1.602078,-1.09231 -0.07862,0.20489 0.19542,0.61034 0.629403,0.93119 0.422762,0.31257 0.842784,0.86364 0.933382,1.22461 0.235458,0.93814 1.282694,0.87025 2.230712,-0.1446 0.830566,-0.88913 1.186155,-2.04883 0.90866,-2.96346 -0.256829,-0.84652 -1.18285,-1.79188 -1.755219,-1.79188 -0.412395,0 -0.483046,-0.22545 -0.483046,-1.54138 0,-1.29844 -0.103349,-1.63847 -0.655704,-2.15738 -0.360638,-0.33881 -1.104778,-0.69109 -1.653646,-0.78285 -0.979568,-0.16378 -0.996488,-0.18655 -0.918992,-1.23708 0.121582,-1.64816 -0.498879,-2.23072 -2.625564,-2.46517 -0.09095,-0.01 -0.235777,-0.37029 -0.321836,-0.80058 -0.186456,-0.93229 -1.491526,-1.72409 -2.446593,-1.48438 -0.528198,0.13257 -0.688134,0.0133 -1.007737,-0.75164 -0.517165,-1.23775 -1.57336,-1.87642 -3.103122,-1.87642 -0.907145,0 -1.415178,0.1547 -1.863719,0.56752 -0.820987,0.75561 -3.149541,1.10621 -4.918531,0.74057 -0.971212,-0.20074 -1.565552,0.15192 -1.947046,1.15533 -0.179939,0.47327 -0.35665,0.58154 -0.700041,0.42889 -0.252639,-0.11231 -0.949607,-0.25421 -1.548818,-0.31534 -0.974327,-0.0994 -1.151007,-0.0247 -1.671663,0.70646 -0.358811,0.50391 -0.813333,0.81761 -1.184622,0.81761 -1.135567,0 -1.886334,1.48734 -1.474904,2.92191 0.210107,0.7326 0.177737,0.78226 -0.509924,0.78226 -0.847642,0 -1.48974,0.60924 -1.752763,1.66307 -0.12618,0.50555 -0.471712,0.85726 -1.100184,1.11985 -0.59842,0.25003 -1.022629,0.66471 -1.222974,1.19548 -0.244961,0.64898 -0.41388,0.77709 -0.838659,0.63605 -0.292554,-0.0971 -0.968105,-0.23414 -1.501225,-0.30447 -0.828678,-0.10931 -1.035908,-0.0262 -1.428353,0.57273 -0.252474,0.38532 -0.798551,0.87615 -1.213504,1.09073 -0.933181,0.48257 -1.014045,1.56269 -0.194949,2.604 0.454669,0.57802 0.739742,0.69625 1.521354,0.63099 0.843872,-0.0705 0.972645,-0.17507 1.049909,-0.85294 l 0.08807,-0.77263 0.579932,1.03721 c 0.729202,1.30419 1.969551,1.55965 2.977054,0.61315 0.63062,-0.59244 0.632508,-0.59255 0.632508,-0.0381 0,0.67555 1.173308,1.65282 1.984375,1.65282 0.324553,0 0.903809,-0.24676 1.287235,-0.54837 z m -7.054193,-4.77071 c 0.209271,-0.20927 0.430409,-0.21155 0.780521,-0.008 0.428261,0.24893 0.392242,0.28494 -0.292,0.292 -0.569205,0.006 -0.701466,-0.071 -0.488521,-0.28396 z m 32.952896,5.14385 c -0.181901,-0.0734 -0.479558,-0.0734 -0.661459,0 -0.181901,0.0734 -0.03307,0.13345 0.330729,0.13345 0.363803,0 0.512631,-0.0601 0.33073,-0.13345 z m -5.160868,-2.10781 c 0.400858,-0.10743 0.693074,-0.49042 0.899261,-1.17861 0.442186,-1.47589 0.05539,-1.83107 -1.988499,-1.82596 -2.097027,0.005 -2.519835,0.24911 -2.027333,1.16936 0.199766,0.37327 0.462155,0.67867 0.583085,0.67867 0.120931,0 0.219874,0.17859 0.219874,0.39687 0,0.21828 -0.148828,0.3987 -0.330729,0.40093 -0.220486,0.003 -0.198437,0.0896 0.06615,0.26053 0.447817,0.2894 1.688473,0.33666 2.578195,0.0982 z m 2.70942,-2.29664 c -0.0031,-0.64242 -0.06537,-0.74939 -0.260532,-0.4474 -0.339111,0.52474 -0.339111,1.66479 0,1.45521 0.145521,-0.0899 0.262761,-0.54345 0.260532,-1.00781 z m -22.221185,-0.11667 c -2.96e-4,-0.24901 -3.217501,-1.43452 -3.399377,-1.25265 -0.0735,0.0735 0.0958,0.3096 0.37622,0.52468 0.860222,0.65976 3.023697,1.18072 3.023157,0.72797 z m 7.342424,-3.42353 c -0.254661,-0.0666 -0.67138,-0.0666 -0.926041,0 -0.254662,0.0666 -0.0463,0.121 0.46302,0.121 0.509323,0 0.717683,-0.0545 0.463021,-0.121 z m -0.529166,-0.80088 c -0.400183,-0.0606 -1.055026,-0.0606 -1.455209,0 -0.400182,0.0606 -0.07276,0.11022 0.727604,0.11022 0.800365,0 1.127787,-0.0496 0.727605,-0.11022 z m 5.027083,0.007 c -0.254662,-0.0666 -0.67138,-0.0666 -0.926042,0 -0.254661,0.0666 -0.0463,0.121 0.463021,0.121 0.509323,0 0.717682,-0.0545 0.463021,-0.121 z m -6.746875,-0.78657 c -0.181901,-0.0734 -0.479557,-0.0734 -0.661458,0 -0.181901,0.0734 -0.03307,0.13345 0.330729,0.13345 0.363802,0 0.51263,-0.06 0.330729,-0.13345 z M 51.4443,169.5079 c -0.08792,-0.0879 -0.316122,-0.0973 -0.507118,-0.0209 -0.211067,0.0845 -0.148372,0.14716 0.159852,0.15986 0.278915,0.0115 0.435185,-0.0511 0.347266,-0.13897 z m -0.457509,-0.6339 c 0,-0.14552 -0.178594,-0.26458 -0.396875,-0.26458 -0.218281,0 -0.396875,0.11906 -0.396875,0.26458 0,0.14553 0.178594,0.26459 0.396875,0.26459 0.218281,0 0.396875,-0.11906 0.396875,-0.26459 z m 13.163021,-0.71867 c -0.400182,-0.0606 -1.055026,-0.0606 -1.455208,0 -0.400183,0.0606 -0.07276,0.11022 0.727604,0.11022 0.800364,0 1.127786,-0.0496 0.727604,-0.11022 z m -5.297179,-0.49951 c -0.08792,-0.0879 -0.316122,-0.0973 -0.507118,-0.0209 -0.211067,0.0845 -0.148372,0.14716 0.159853,0.15985 0.278914,0.0115 0.435184,-0.0511 0.347265,-0.13896 z m 107.423377,66.20846 c -0.69285,-0.1934 -1.69557,-0.66175 -2.22827,-1.04077 -1.04186,-0.7413 -1.40679,-0.71658 -1.40679,0.0953 0,0.28246 -0.17859,0.51356 -0.39687,0.51356 -0.31662,0 -0.39615,-0.38792 -0.39326,-1.91823 0.004,-2.2707 0.18995,-3.10886 0.6887,-3.10886 0.24748,0 0.36602,0.32593 0.36602,1.00643 0,2.51158 4.80517,4.65847 7.40755,3.30961 2.28939,-1.18663 0.93716,-3.25332 -2.64505,-4.0426 -2.36379,-0.52082 -3.59828,-1.06503 -4.48037,-1.97513 -1.41954,-1.46458 -1.42432,-3.9317 -0.0108,-5.54168 1.59876,-1.82088 4.50615,-2.20822 7.2997,-0.9725 l 1.26081,0.55772 0.58742,-0.73499 c 0.32308,-0.40424 0.67259,-0.65057 0.77668,-0.54739 0.3131,0.31034 -1.0894,4.83949 -1.4986,4.83949 -0.26591,0 -0.3429,-0.3255 -0.28782,-1.21686 0.0848,-1.37215 -0.0445,-1.52822 -1.80384,-2.17716 -2.76246,-1.01896 -5.25199,-0.1975 -5.2744,1.74037 -0.0155,1.33751 1.00113,1.99175 4.47324,2.87881 3.58859,0.91682 4.77876,2.01403 4.77876,4.40549 0,2.83569 -3.77118,4.89015 -7.21286,3.92942 z m -48.21735,-0.26232 c -1.19325,-0.35952 -1.39758,-0.99172 -0.39687,-1.22796 0.74283,-0.17536 0.71676,0.17659 0.58796,-7.9375 l -0.0588,-3.70416 h -0.66145 c -0.96249,0 -0.82517,-0.7027 0.19843,-1.01542 3.77781,-1.15414 9.61211,-0.059 10.85,2.03654 1.00273,1.6975 0.38947,3.80795 -1.44261,4.96449 -0.92481,0.58381 -1.0263,0.72935 -0.65391,0.93775 0.64213,0.35935 1.23454,1.64618 1.23454,2.68166 0,1.38073 -0.96569,2.58448 -2.51354,3.13318 -1.55966,0.55288 -5.5041,0.62544 -7.14375,0.13142 z m 6.83042,-0.99644 c 1.11027,-0.57183 1.76854,-1.371 1.76854,-2.14712 0,-1.65733 -1.19427,-2.56155 -3.50972,-2.65732 l -1.38507,-0.0573 -0.0757,2.57969 -0.0757,2.57969 h 1.3499 c 0.74244,0 1.60995,-0.13394 1.92781,-0.29765 z m 1.41646,-6.56484 c 1.26107,-0.57257 1.675,-1.18472 1.675,-2.47714 0,-1.81514 -1.85453,-3.04888 -4.7625,-3.16831 l -1.45521,-0.0598 -0.0759,2.76024 c -0.0418,1.51813 -0.0157,2.91711 0.0579,3.10885 0.21006,0.54742 3.23347,0.43879 4.5608,-0.16387 z m 23.60432,7.18191 c -4.36236,-2.27892 -5.17298,-8.42065 -1.57258,-11.91473 3.21054,-3.11571 8.1512,-2.30241 10.51488,1.73089 1.02003,1.74055 1.1767,4.70721 0.35008,6.62876 -0.65138,1.51416 -2.42972,3.32603 -3.84481,3.91729 -1.52959,0.63911 -3.82269,0.48664 -5.44757,-0.36221 z m 6.16209,-1.18873 c 2.57519,-1.95504 3.42651,-5.49148 1.99577,-8.2905 -1.20946,-2.3661 -3.06779,-3.51833 -4.88518,-3.02895 -1.38827,0.37382 -2.32974,1.1424 -3.05053,2.49033 -0.48954,0.91547 -0.58768,1.52011 -0.58643,3.61301 0.001,2.18606 0.0875,2.66733 0.66146,3.69393 1.39818,2.50076 3.76633,3.1154 5.86491,1.52218 z m -60.808365,1.33233 c -0.220765,-0.35731 0.192182,-0.7276 0.811406,-0.7276 0.579992,0 0.613667,-0.11226 0.757659,-2.52578 0.08288,-1.38917 0.130138,-4.09784 0.10502,-6.01927 l -0.04567,-3.4935 -0.708242,-0.0819 c -0.856603,-0.099 -1.531901,-0.7681 -0.975202,-0.96626 0.645444,-0.22974 6.975794,0.24225 6.960104,0.51895 -0.008,0.14552 -0.36543,0.3249 -0.79375,0.39862 -0.72384,0.12459 -0.79089,0.2365 -0.95102,1.5875 -0.0948,0.7994 -0.18404,3.43287 -0.19843,5.85216 l -0.0262,4.3987 0.82682,0.16536 c 1.40097,0.2802 3.58931,0.18669 3.86991,-0.16536 0.14498,-0.1819 0.34493,-0.92605 0.44434,-1.65365 0.0994,-0.7276 0.24151,-1.53128 0.31579,-1.78594 0.16728,-0.57353 0.89314,-0.61495 0.89314,-0.051 0,0.88804 -0.61593,4.23161 -0.8216,4.46003 -0.26046,0.28927 -10.287667,0.37442 -10.464107,0.0888 z m 13.046375,0.11007 c -0.69625,-0.13173 -0.38247,-0.65179 0.53701,-0.89005 l 0.80649,-0.20898 0.13229,-5.62401 c 0.0782,-3.32559 0.0307,-5.75275 -0.11624,-5.93903 -0.13669,-0.17327 -0.56724,-0.35186 -0.95677,-0.39688 -0.93047,-0.10753 -0.97568,-0.8986 -0.0468,-0.8187 0.36381,0.0313 1.90171,0.0908 3.41756,0.13229 1.9229,0.0526 2.78963,0.176 2.86701,0.40819 0.0664,0.19914 -0.2084,0.39666 -0.68412,0.4918 -0.51822,0.10365 -0.8424,0.35626 -0.9311,0.72554 -0.0748,0.31159 -0.16928,2.88825 -0.20988,5.72591 l -0.0738,5.15937 0.84988,0.25315 c 0.97303,0.28983 1.1432,0.92858 0.25458,0.95553 -2.88311,0.0875 -5.46028,0.0989 -5.8461,0.0259 z m 22.45433,-0.0348 c -0.26441,-0.42783 0.0978,-0.80285 0.77543,-0.80285 0.33964,0 0.68981,-0.18834 0.77813,-0.41852 0.0883,-0.23018 0.1606,-2.84956 0.1606,-5.82083 v -5.40232 h -0.94544 c -0.75686,0 -0.92771,-0.0921 -0.85655,-0.46156 0.19633,-1.01948 5.93853,-1.45518 9.25048,-0.70189 2.20597,0.50174 3.32426,1.3648 3.6502,2.81709 0.37816,1.68502 -0.0549,2.83283 -1.59311,4.22202 l -1.37901,1.24546 0.17952,1.52742 c 0.37211,3.16604 2.08129,3.7712 2.46982,0.87446 0.10835,-0.80778 0.25283,-1.06055 0.57153,-0.99986 1.08639,0.20688 0.3292,2.77299 -1.07891,3.6564 -1.60148,1.00472 -3.81538,0.32941 -4.77778,-1.45738 -0.15483,-0.28745 -0.35225,-1.18042 -0.43873,-1.98438 -0.15196,-1.41283 -0.18378,-1.46174 -0.95097,-1.46174 h -0.79375 l -0.0762,2.45957 c -0.0508,1.63798 -0.18334,2.4926 -0.39688,2.55844 -0.91482,0.28209 -4.39582,0.39725 -4.54834,0.15047 z m 10.08448,-6.97074 c 1.26707,-0.65522 1.76306,-1.39693 1.79077,-2.6779 0.0206,-0.95394 -0.11817,-1.32324 -0.7421,-1.97459 -0.87782,-0.91638 -2.77126,-1.44787 -4.65649,-1.30708 l -1.19062,0.0889 -0.0756,2.89342 c -0.0416,1.59137 -0.009,3.06686 0.0723,3.27887 0.19132,0.49857 3.67782,0.27956 4.80172,-0.30163 z m 21.19276,-13.15742 c -1.15159,-0.28585 -2.99245,-1.18104 -3.2347,-1.573 -0.3066,-0.4961 -0.66379,-0.27413 -0.66379,0.4125 0,0.50787 -0.11764,0.65696 -0.46302,0.58682 -0.39145,-0.0795 -0.45653,-0.37159 -0.42103,-1.88955 0.0526,-2.25083 0.2568,-3.0823 0.7568,-3.0823 0.28788,0 0.39183,0.31519 0.39183,1.18806 0,1.11287 0.0795,1.24579 1.25677,2.1005 1.53677,1.11575 3.11497,1.58681 4.71289,1.4067 1.37738,-0.15525 2.49701,-1.02501 2.49701,-1.93973 0,-0.78941 -1.3399,-1.8814 -2.72401,-2.22002 -5.32226,-1.30206 -6.53641,-2.21246 -6.53641,-4.90113 0,-1.95627 1.02025,-3.40535 2.97168,-4.22071 1.61157,-0.67336 3.5225,-0.44174 6.34873,0.76951 0.33831,0.14499 0.53816,0.0174 0.77008,-0.4916 0.31371,-0.68853 1.02201,-0.95455 1.02201,-0.38384 0,0.16696 -0.23008,0.97063 -0.51129,1.78593 -0.28121,0.81531 -0.58113,1.8098 -0.6665,2.20998 -0.0913,0.42815 -0.3305,0.7276 -0.58113,0.7276 -0.35855,0 -0.39795,-0.21087 -0.24907,-1.33316 l 0.17685,-1.33316 -1.26213,-0.5583 c -3.18135,-1.40726 -5.90256,-0.72235 -5.90256,1.48563 0,1.4696 0.70864,1.87183 5.6399,3.20119 3.08126,0.83065 4.32626,3.00481 3.12941,5.46494 -1.00965,2.07535 -3.88301,3.22639 -6.45832,2.58714 z m -65.630214,-0.39976 c -1.360564,-0.4363 -1.565958,-1.05181 -0.344613,-1.03272 0.502518,0.008 0.748023,-0.14706 0.838546,-0.52916 0.0704,-0.29715 0.09622,-2.80247 0.05737,-5.56736 l -0.07062,-5.02708 -0.661458,-0.0791 c -2.124398,-0.25411 -1.448826,-0.94491 1.349849,-1.38028 6.25533,-0.9731 10.31185,1.64186 10.34084,6.66601 0.0171,2.95935 -1.26094,5.03044 -3.90839,6.33378 -1.41121,0.69473 -2.05722,0.84418 -4.00486,0.92648 -1.606274,0.0679 -2.715145,-0.0279 -3.596664,-0.31055 z m 6.610314,-1.19313 c 2.55158,-1.08987 3.90729,-3.06981 3.89488,-5.68827 -0.009,-1.93166 -0.81659,-3.79654 -2.04795,-4.73004 -0.90088,-0.68295 -3.69616,-1.52315 -4.29847,-1.29202 -0.30262,0.11613 -0.3708,1.22356 -0.3708,6.02301 0,3.2344 0.0794,5.9601 0.17639,6.05711 0.3251,0.3251 1.35657,0.18095 2.64595,-0.36979 z m 42.52694,1.10011 c -2.60465,-1.18289 -4.1669,-3.73214 -4.14984,-6.77164 0.0173,-3.07731 1.62588,-5.63422 4.26468,-6.77879 4.35697,-1.88981 9.34636,1.70487 9.38375,6.76067 0.0375,5.07037 -5.13815,8.77001 -9.49859,6.78976 z m 5.16,-0.93729 c 0.96888,-0.50103 2.29831,-2.03019 2.83812,-3.26451 0.68138,-1.55804 0.58026,-3.90646 -0.237,-5.50407 -1.409,-2.75438 -3.40723,-3.75936 -5.57138,-2.80206 -4.69439,2.07656 -3.70568,11.954 1.19658,11.954 0.56779,0 1.36594,-0.17251 1.77368,-0.38336 z m -22.02354,0.8574 c -0.41711,-0.25784 0.0489,-0.6707 0.88301,-0.78237 l 0.66146,-0.0886 0.20088,-4.23333 c 0.11048,-2.32833 0.17001,-4.99705 0.13229,-5.93048 -0.068,-1.68308 -0.0763,-1.69973 -0.99463,-2.00798 -0.50933,-0.17096 -0.89628,-0.41927 -0.8599,-0.55181 0.0364,-0.13254 1.64373,-0.24098 3.57188,-0.24098 2.92954,0 3.50573,0.0648 3.50573,0.39428 0,0.23133 -0.32804,0.45074 -0.79375,0.53091 -0.74167,0.12767 -0.80506,0.23201 -0.96603,1.5901 -0.0947,0.7994 -0.18404,3.43288 -0.19843,5.85216 l -0.0262,4.3987 0.82682,0.16536 c 1.36306,0.27261 3.54345,0.18718 3.88276,-0.15213 0.17463,-0.17463 0.3175,-0.52596 0.3175,-0.78073 0,-1.16474 0.59579,-3.13511 0.94797,-3.13511 0.20645,0 0.37495,0.25383 0.37495,0.56481 0,0.91178 -0.59638,4.04461 -0.81831,4.29863 -0.24265,0.27772 -10.20996,0.3793 -10.64803,0.10852 z m -18.63245,-0.26831 c 0.0593,-0.17788 0.39664,-0.39154 0.74966,-0.47478 l 0.64184,-0.15136 0.0713,-5.72485 0.0713,-5.72485 -0.73045,-0.0842 c -0.41774,-0.0482 -0.76531,-0.26827 -0.81188,-0.51413 -0.071,-0.37494 0.41921,-0.4522 3.83419,-0.60431 2.1536,-0.0959 4.45141,-0.20012 5.10625,-0.23155 l 1.19063,-0.0571 0.23309,1.63711 c 0.1282,0.90042 0.15655,1.83656 0.063,2.08032 -0.28558,0.74422 -0.95698,-0.0728 -0.96161,-1.17014 -0.007,-1.60645 -0.17312,-1.69837 -2.49012,-1.37611 -1.12312,0.15622 -2.09295,0.28403 -2.15518,0.28403 -0.17721,0 -0.12532,4.82233 0.0593,5.51184 0.15649,0.58444 0.24645,0.60762 1.70206,0.43868 0.84526,-0.0981 1.65705,-0.10407 1.80398,-0.0133 0.48199,0.29788 -0.0157,0.94184 -0.73023,0.94482 -0.38462,0.002 -1.14579,0.0767 -1.69149,0.16691 l -0.99219,0.164 v 2.08204 2.08205 l 1.52136,0.0197 c 0.83674,0.0108 1.76071,0.0653 2.05325,0.12096 0.83062,0.15818 1.18306,-0.21523 1.39943,-1.48272 0.13052,-0.76455 0.33529,-1.17144 0.58954,-1.17144 0.29515,0 0.37343,0.28851 0.32303,1.19063 -0.14525,2.59978 0.37319,2.38125 -5.64911,2.38125 -4.06546,0 -5.28343,-0.0757 -5.20087,-0.32344 z m 39.63173,-17.74213 c -0.35943,-0.18188 -0.93586,-0.74567 -1.28096,-1.25287 -0.39378,-0.57876 -0.79087,-0.88301 -1.06627,-0.81699 -0.24136,0.0579 -1.33463,0.11739 -2.42949,0.13229 -1.82696,0.0249 -2.1034,-0.0453 -3.36184,-0.85294 -4.21093,-2.7026 -4.62635,-8.80377 -0.8212,-12.06084 1.07383,-0.91916 3.11712,-1.7435 4.32161,-1.7435 1.19459,0 3.24387,0.82099 4.29491,1.72065 3.21661,2.75329 3.43552,8.10272 0.45001,10.9964 -1.0784,1.04522 -1.12858,1.52025 -0.25963,2.45786 0.49573,0.5349 0.90152,0.70009 1.71979,0.70009 1.10586,0 1.30172,0.19258 0.75346,0.74083 -0.40948,0.40949 -1.48896,0.39973 -2.32039,-0.021 z m -2.8077,-2.99711 c 0.60247,-0.23119 0.51501,-1.09206 -0.14694,-1.44633 -0.311,-0.16644 -0.96367,-0.238 -1.45036,-0.15902 -0.98484,0.15982 -1.37203,-0.17234 -0.88499,-0.75919 0.58283,-0.70227 2.24798,-0.47768 3.29876,0.44492 l 0.94555,0.83019 0.64846,-0.60919 c 1.01948,-0.95775 1.79012,-3.3035 1.62552,-4.9479 -0.28013,-2.79848 -2.58877,-5.6283 -4.59173,-5.6283 -2.12151,0 -4.03323,1.68116 -4.60046,4.04564 -0.62706,2.61389 0.10249,6.10439 1.54937,7.41287 0.84985,0.76855 2.66229,1.17875 3.60682,0.81631 z m -18.2137,1.06071 c -0.71609,-0.22734 -1.726,-0.70146 -2.24423,-1.0536 -1.18633,-0.80613 -1.34856,-0.80125 -1.34856,0.0406 0,0.50787 -0.11764,0.65696 -0.46302,0.58681 -0.3976,-0.0808 -0.45633,-0.38004 -0.41566,-2.11835 0.0474,-2.02606 0.41984,-3.26936 0.89196,-2.97757 0.13822,0.0854 0.2513,0.60118 0.2513,1.14613 0,2.49657 4.81454,4.63727 7.40834,3.29399 0.73644,-0.38139 0.94339,-0.6607 1.01079,-1.36422 0.12302,-1.28397 -0.50896,-1.80743 -3.10732,-2.57377 -5.15975,-1.52179 -5.86985,-2.06098 -6.05324,-4.5963 -0.14011,-1.937 0.4906,-3.1303 2.17677,-4.11846 1.46303,-0.85739 4.19393,-0.91451 5.93574,-0.12414 1.4988,0.68009 1.74161,0.66118 2.11805,-0.16503 0.25043,-0.54964 0.38826,-0.62646 0.68385,-0.38114 0.31622,0.26244 0.30979,0.44965 -0.0441,1.2837 -0.22786,0.53705 -0.54903,1.57176 -0.71371,2.29937 -0.19352,0.85504 -0.43759,1.32291 -0.6901,1.32291 -0.30422,0 -0.37264,-0.29939 -0.30914,-1.35268 l 0.0816,-1.35269 -1.25991,-0.59222 c -2.72876,-1.28267 -5.67672,-0.63049 -5.86711,1.29798 -0.15463,1.56618 0.87709,2.26528 4.71496,3.1949 2.14352,0.5192 2.6596,0.75384 3.50573,1.59387 0.90544,0.89893 0.99219,1.11152 0.99219,2.43168 0,1.17619 -0.14336,1.64454 -0.76679,2.50515 -1.28546,1.77454 -4.07903,2.53794 -6.48834,1.77308 z m 29.65348,0.0369 c -2.87411,-1.02476 -4.05578,-4.36276 -3.60992,-10.1974 0.10564,-1.38245 0.14115,-2.60284 0.0789,-2.71198 -0.0622,-0.10914 -0.33724,-0.19844 -0.6111,-0.19844 -0.6487,0 -0.96376,-0.52232 -0.49692,-0.82382 0.20054,-0.12952 1.73241,-0.2055 3.40414,-0.16885 2.65331,0.0582 3.05079,0.12546 3.12825,0.52965 0.0691,0.36043 -0.0929,0.46302 -0.73095,0.46302 -1.15526,0 -1.33605,0.67454 -1.3343,4.97816 0.002,4.11649 0.26164,5.37982 1.32603,6.44422 1.59195,1.59194 3.75713,0.55834 4.52886,-2.16196 0.36788,-1.29677 0.43265,-5.32786 0.1241,-7.72412 -0.19281,-1.49737 -0.1997,-1.50689 -1.14854,-1.5875 -0.52501,-0.0446 -1.00199,-0.22553 -1.05995,-0.40206 -0.13467,-0.41013 0.65743,-0.5889 2.9749,-0.67142 1.49399,-0.0532 1.85209,0.0103 1.85209,0.32833 0,0.23067 -0.32938,0.45223 -0.79375,0.53392 -0.74993,0.13193 -0.79182,0.20511 -0.7587,1.32551 0.15727,5.32105 0.094,7.10475 -0.29776,8.39951 -0.54896,1.81409 -1.68662,3.08557 -3.23196,3.61212 -1.47725,0.50335 -2.00977,0.50863 -3.34344,0.0331 z M 96.370804,192.6594 c -1.399358,-0.28554 -2.078629,-0.67664 -1.841526,-1.06028 0.07975,-0.12903 0.437944,-0.2346 0.795996,-0.2346 h 0.651004 l -0.07131,-5.74292 -0.07131,-5.74293 -0.641842,-0.15135 c -0.353014,-0.0832 -0.690113,-0.29617 -0.74911,-0.47316 -0.207256,-0.62177 1.379761,-0.94457 4.698244,-0.95565 2.88376,-0.01 3.47628,0.0656 4.62691,0.58729 1.72803,0.78349 2.46211,1.50331 2.79542,2.74112 0.37397,1.38882 -0.4004,3.1651 -1.719,3.9431 -0.51746,0.3053 -0.94083,0.61545 -0.94083,0.68921 0,0.0738 0.29765,0.48785 0.66146,0.92021 0.50402,0.59899 0.66145,1.08765 0.66145,2.05303 0,1.55864 -0.61509,2.42641 -2.15729,3.04348 -1.35728,0.54307 -4.917242,0.74687 -6.698274,0.38345 z m 6.728266,-1.46298 c 1.60332,-0.9471 1.60758,-3.10713 0.008,-3.93442 -1.19289,-0.61687 -3.426084,-0.8383 -3.723112,-0.36917 -0.272258,0.43001 -0.325316,3.94873 -0.06959,4.61514 0.1436,0.37421 0.413322,0.42652 1.578972,0.30622 0.77318,-0.0798 1.76586,-0.3578 2.20596,-0.61777 z m -0.22375,-5.94851 c 3.32591,-0.71328 3.86304,-3.9752 0.87242,-5.2981 -1.60289,-0.70903 -4.044916,-0.96928 -4.364143,-0.4651 -0.263994,0.41696 -0.321359,4.54765 -0.07588,5.46366 0.130273,0.48611 0.345625,0.59531 1.173983,0.59531 0.55795,0 1.63508,-0.1331 2.39362,-0.29577 z m 9.87696,7.07607 c -3.13907,-1.46173 -4.80546,-5.37111 -3.81283,-8.94502 0.45542,-1.63971 1.85999,-3.39533 3.42278,-4.27825 3.36263,-1.89976 7.46369,-0.52222 9.33526,3.13568 0.75301,1.47172 0.91649,4.18713 0.35404,5.88051 -1.30313,3.92335 -5.66791,5.89802 -9.29925,4.20708 z m 5.43389,-0.95702 c 2.5451,-1.29842 3.80397,-4.6582 2.94096,-7.84914 -0.41233,-1.52454 -2.42688,-3.72508 -3.61416,-3.94782 -1.52194,-0.28552 -2.70271,0.0916 -3.78776,1.20963 -1.19713,1.23356 -1.65853,2.62826 -1.6503,4.9884 0.0163,4.66506 2.85103,7.26217 6.11126,5.59893 z m 50.33933,0.73246 c 0.0593,-0.17789 0.39664,-0.39161 0.74965,-0.47495 l 0.64185,-0.15152 v -5.8089 -5.80891 l -0.72761,-0.0837 c -0.87862,-0.10109 -0.97325,-0.78253 -0.13229,-0.9527 0.32742,-0.0662 2.64216,-0.18547 5.14387,-0.26492 l 4.54855,-0.14446 0.16514,1.25207 c 0.29222,2.21568 0.24864,2.79055 -0.20027,2.64173 -0.1819,-0.0603 -0.45837,-0.6953 -0.61438,-1.41111 l -0.28364,-1.30147 -1.77626,0.0414 c -2.68079,0.0625 -2.55124,-0.11042 -2.55124,3.40628 v 3.06745 l 1.75854,-0.0826 c 1.23075,-0.0578 1.79322,0.0166 1.87409,0.24801 0.1413,0.4043 -0.1633,0.50927 -2.11128,0.7276 l -1.52135,0.17051 v 2.06961 2.06961 l 2.18281,0.11353 c 1.20055,0.0624 2.33164,9.4e-4 2.51354,-0.13667 0.18191,-0.13761 0.33073,-0.58307 0.33073,-0.98992 0,-1.0303 0.25089,-1.57674 0.72394,-1.57674 0.33736,0 0.37254,0.26697 0.2167,1.64445 -0.10233,0.90445 -0.2438,1.73788 -0.31437,1.85208 -0.0706,0.1142 -2.51247,0.20764 -5.42643,0.20764 -4.05713,0 -5.27285,-0.0758 -5.19029,-0.32343 z M 94.56204,170.29321 c -0.273992,-0.27399 0.07203,-0.62456 0.616474,-0.62456 0.905477,0 1.030434,-0.81758 0.974263,-6.37458 l -0.05453,-5.39445 -0.79375,-0.13735 c -0.465394,-0.0805 -0.79375,-0.30046 -0.79375,-0.53163 0,-0.32898 0.850863,-0.42706 5.137816,-0.59223 2.825797,-0.10887 5.167217,-0.1684 5.203147,-0.13229 0.0359,0.0361 0.15031,0.92886 0.25418,1.98389 0.15987,1.62386 0.12705,1.91823 -0.2139,1.91823 -0.46683,0 -0.72226,-0.54138 -0.728,-1.543 -0.007,-1.31172 -0.29024,-1.46386 -2.39267,-1.2876 -1.05519,0.0885 -2.023386,0.2657 -2.151547,0.39386 -0.128161,0.12816 -0.199027,1.53253 -0.157481,3.12082 l 0.07554,2.88779 1.639738,-0.0904 c 1.86418,-0.10272 2.38595,0.0727 1.91259,0.64308 -0.174,0.20966 -0.7886,0.3749 -1.40191,0.37693 -2.25223,0.007 -2.313499,0.072 -2.227089,2.34511 l 0.07667,2.01691 2.415929,0.0757 2.41592,0.0757 0.18953,-1.26629 c 0.23076,-1.5418 0.30897,-1.68247 0.82527,-1.48434 0.40316,0.1547 0.39248,0.69115 -0.061,3.06233 l -0.13915,0.7276 h -5.226543 c -2.8746,0 -5.302685,-0.0761 -5.395742,-0.16919 z m 12.92484,-0.0767 c -0.17485,-0.28292 0.6538,-0.81244 1.2714,-0.81244 0.535,0 0.75631,-2.69708 0.65131,-7.9375 l -0.0822,-4.10105 -0.66146,-0.0915 c -0.78913,-0.10916 -1.42943,-0.58027 -1.13569,-0.83561 0.11531,-0.10024 1.78723,-0.12692 3.71538,-0.0593 2.60023,0.0912 3.50573,0.21006 3.50573,0.46023 0,0.37133 -0.57381,0.65848 -1.31587,0.65848 -0.43779,0 -0.49477,0.41397 -0.66458,4.82864 -0.10216,2.65576 -0.14483,5.3049 -0.0948,5.88698 l 0.0909,1.05833 h 2.38125 2.38125 l 0.36058,-2.06417 c 0.29027,-1.66165 0.44505,-2.04732 0.79375,-1.97776 0.4899,0.0977 0.47998,0.87023 -0.0451,3.51277 l -0.31545,1.5875 -5.33885,0.0716 c -3.24615,0.0435 -5.40105,-0.0291 -5.49752,-0.18516 z"
       id="path1" /></g></svg>
